<mxfile host="app.diagrams.net" modified="2023-10-22T04:38:43.137Z" agent="Mozilla/5.0 (Windows NT 10.0; Win64; x64) AppleWebKit/537.36 (KHTML, like Gecko) Chrome/116.0.0.0 Safari/537.36 OPR/102.0.0.0" etag="GIkm_pQpuR91DemANLYG" version="22.0.0" type="github">
  <diagram name="Page-1" id="7gOfZk6jUytsvs2lnIFR">
    <mxGraphModel dx="1009" dy="542" grid="1" gridSize="10" guides="1" tooltips="1" connect="1" arrows="1" fold="1" page="1" pageScale="1" pageWidth="850" pageHeight="1100" math="0" shadow="0">
      <root>
        <mxCell id="0" />
        <mxCell id="1" parent="0" />
        <mxCell id="0J6NUylF1jS6PQGjhY35-1" value="" style="rounded=0;whiteSpace=wrap;html=1;" vertex="1" parent="1">
          <mxGeometry x="160" y="90" width="610" height="410" as="geometry" />
        </mxCell>
        <mxCell id="0J6NUylF1jS6PQGjhY35-2" value="&lt;font style=&quot;font-size: 15px;&quot;&gt;&lt;b&gt;Use Case .... Simulation VR&lt;/b&gt;&lt;/font&gt;" style="text;html=1;strokeColor=none;fillColor=none;align=center;verticalAlign=middle;whiteSpace=wrap;rounded=0;" vertex="1" parent="1">
          <mxGeometry x="352.5" y="100" width="225" height="30" as="geometry" />
        </mxCell>
        <mxCell id="0J6NUylF1jS6PQGjhY35-3" value="Player" style="shape=umlActor;verticalLabelPosition=bottom;verticalAlign=top;html=1;outlineConnect=0;" vertex="1" parent="1">
          <mxGeometry x="100" y="220" width="30" height="60" as="geometry" />
        </mxCell>
        <mxCell id="0J6NUylF1jS6PQGjhY35-4" value="Mengakses Main Menu" style="ellipse;whiteSpace=wrap;html=1;fontSize=14;" vertex="1" parent="1">
          <mxGeometry x="220" y="160" width="100" height="60" as="geometry" />
        </mxCell>
        <mxCell id="0J6NUylF1jS6PQGjhY35-5" value="Memulai Permainan" style="ellipse;whiteSpace=wrap;html=1;fontSize=14;" vertex="1" parent="1">
          <mxGeometry x="420" y="160" width="115" height="60" as="geometry" />
        </mxCell>
        <mxCell id="0J6NUylF1jS6PQGjhY35-6" value="Mengakses Pengaturan" style="ellipse;whiteSpace=wrap;html=1;fontSize=14;" vertex="1" parent="1">
          <mxGeometry x="600" y="360" width="100" height="60" as="geometry" />
        </mxCell>
        <mxCell id="0J6NUylF1jS6PQGjhY35-7" value="Keluar Permainan" style="ellipse;whiteSpace=wrap;html=1;fontSize=14;" vertex="1" parent="1">
          <mxGeometry x="210" y="280" width="100" height="60" as="geometry" />
        </mxCell>
        <mxCell id="0J6NUylF1jS6PQGjhY35-9" value="&lt;font style=&quot;font-size: 13px;&quot;&gt;Mengakses Menu Pause&lt;/font&gt;" style="ellipse;whiteSpace=wrap;html=1;fontSize=14;" vertex="1" parent="1">
          <mxGeometry x="430" y="280" width="115" height="60" as="geometry" />
        </mxCell>
        <mxCell id="0J6NUylF1jS6PQGjhY35-10" value="&lt;span style=&quot;font-size: 13px;&quot;&gt;Restart&lt;/span&gt;" style="ellipse;whiteSpace=wrap;html=1;fontSize=14;" vertex="1" parent="1">
          <mxGeometry x="315" y="350" width="115" height="60" as="geometry" />
        </mxCell>
        <mxCell id="0J6NUylF1jS6PQGjhY35-11" value="&lt;span style=&quot;font-size: 13px;&quot;&gt;Kembali Ke Main Menu&lt;/span&gt;" style="ellipse;whiteSpace=wrap;html=1;fontSize=14;" vertex="1" parent="1">
          <mxGeometry x="462.5" y="380" width="115" height="60" as="geometry" />
        </mxCell>
        <mxCell id="0J6NUylF1jS6PQGjhY35-12" value="" style="endArrow=none;html=1;rounded=0;entryX=0.03;entryY=0.7;entryDx=0;entryDy=0;entryPerimeter=0;" edge="1" parent="1" source="0J6NUylF1jS6PQGjhY35-3" target="0J6NUylF1jS6PQGjhY35-4">
          <mxGeometry width="50" height="50" relative="1" as="geometry">
            <mxPoint x="420" y="310" as="sourcePoint" />
            <mxPoint x="470" y="260" as="targetPoint" />
          </mxGeometry>
        </mxCell>
        <mxCell id="0J6NUylF1jS6PQGjhY35-13" value="Include" style="endArrow=open;endSize=12;dashed=1;html=1;rounded=0;" edge="1" parent="1" source="0J6NUylF1jS6PQGjhY35-6" target="0J6NUylF1jS6PQGjhY35-9">
          <mxGeometry width="160" relative="1" as="geometry">
            <mxPoint x="370" y="320" as="sourcePoint" />
            <mxPoint x="530" y="320" as="targetPoint" />
          </mxGeometry>
        </mxCell>
        <mxCell id="0J6NUylF1jS6PQGjhY35-15" value="Include" style="endArrow=open;endSize=12;dashed=1;html=1;rounded=0;entryX=0.4;entryY=0.957;entryDx=0;entryDy=0;entryPerimeter=0;exitX=0.5;exitY=0;exitDx=0;exitDy=0;" edge="1" parent="1" source="0J6NUylF1jS6PQGjhY35-7" target="0J6NUylF1jS6PQGjhY35-4">
          <mxGeometry width="160" relative="1" as="geometry">
            <mxPoint x="379" y="279" as="sourcePoint" />
            <mxPoint x="321" y="234" as="targetPoint" />
          </mxGeometry>
        </mxCell>
        <mxCell id="0J6NUylF1jS6PQGjhY35-16" value="Include" style="endArrow=open;endSize=12;dashed=1;html=1;rounded=0;exitX=0.5;exitY=0;exitDx=0;exitDy=0;entryX=0.5;entryY=1;entryDx=0;entryDy=0;" edge="1" parent="1" source="0J6NUylF1jS6PQGjhY35-9" target="0J6NUylF1jS6PQGjhY35-5">
          <mxGeometry width="160" relative="1" as="geometry">
            <mxPoint x="389" y="289" as="sourcePoint" />
            <mxPoint x="331" y="244" as="targetPoint" />
          </mxGeometry>
        </mxCell>
        <mxCell id="0J6NUylF1jS6PQGjhY35-17" value="Include" style="endArrow=open;endSize=12;dashed=1;html=1;rounded=0;exitX=0;exitY=0.5;exitDx=0;exitDy=0;entryX=1;entryY=0.5;entryDx=0;entryDy=0;" edge="1" parent="1" source="0J6NUylF1jS6PQGjhY35-5" target="0J6NUylF1jS6PQGjhY35-4">
          <mxGeometry width="160" relative="1" as="geometry">
            <mxPoint x="575" y="302" as="sourcePoint" />
            <mxPoint x="497.5" y="190" as="targetPoint" />
          </mxGeometry>
        </mxCell>
        <mxCell id="0J6NUylF1jS6PQGjhY35-18" value="Include" style="endArrow=open;endSize=12;dashed=1;html=1;rounded=0;exitX=0.79;exitY=0.087;exitDx=0;exitDy=0;entryX=0;entryY=0.5;entryDx=0;entryDy=0;exitPerimeter=0;" edge="1" parent="1" source="0J6NUylF1jS6PQGjhY35-10" target="0J6NUylF1jS6PQGjhY35-9">
          <mxGeometry width="160" relative="1" as="geometry">
            <mxPoint x="628" y="300" as="sourcePoint" />
            <mxPoint x="628" y="240" as="targetPoint" />
          </mxGeometry>
        </mxCell>
        <mxCell id="0J6NUylF1jS6PQGjhY35-19" value="Include" style="endArrow=open;endSize=12;dashed=1;html=1;rounded=0;exitX=0.458;exitY=0.048;exitDx=0;exitDy=0;entryX=0.668;entryY=1.047;entryDx=0;entryDy=0;exitPerimeter=0;entryPerimeter=0;" edge="1" parent="1" source="0J6NUylF1jS6PQGjhY35-11" target="0J6NUylF1jS6PQGjhY35-9">
          <mxGeometry width="160" relative="1" as="geometry">
            <mxPoint x="557" y="400" as="sourcePoint" />
            <mxPoint x="596" y="356" as="targetPoint" />
          </mxGeometry>
        </mxCell>
        <mxCell id="0J6NUylF1jS6PQGjhY35-20" value="&lt;font style=&quot;font-size: 13px;&quot;&gt;Berinteraksi Dengan Objek&amp;nbsp;&lt;/font&gt;" style="ellipse;whiteSpace=wrap;html=1;fontSize=14;" vertex="1" parent="1">
          <mxGeometry x="595" y="160" width="160" height="60" as="geometry" />
        </mxCell>
        <mxCell id="0J6NUylF1jS6PQGjhY35-21" value="Include" style="endArrow=open;endSize=12;dashed=1;html=1;rounded=0;exitX=0;exitY=0.5;exitDx=0;exitDy=0;entryX=1;entryY=0.5;entryDx=0;entryDy=0;" edge="1" parent="1" source="0J6NUylF1jS6PQGjhY35-20" target="0J6NUylF1jS6PQGjhY35-5">
          <mxGeometry width="160" relative="1" as="geometry">
            <mxPoint x="548" y="300" as="sourcePoint" />
            <mxPoint x="488" y="230" as="targetPoint" />
          </mxGeometry>
        </mxCell>
      </root>
    </mxGraphModel>
  </diagram>
</mxfile>
